<?xml version="1.0" encoding="UTF-8"?>
<svg xmlns="http://www.w3.org/2000/svg" viewBox="0 0 595.28 841.89">
  <defs>
    <style>
      .cls-1 {
        fill: #ec2027;
        stroke: #ec2027;
        stroke-width: 1.62px;
      }

      .cls-1, .cls-2 {
        stroke-miterlimit: 10;
      }

      .cls-3 {
        fill: #ed1c24;
      }

      .cls-3, .cls-4, .cls-5 {
        stroke-width: 0px;
      }

      .cls-2 {
        fill: #231f20;
        stroke: #231f20;
        stroke-width: 7.65px;
      }

      .cls-4 {
        fill: #8dc63f;
      }

      .cls-5 {
        fill: #00a651;
      }
    </style>
  </defs>
  <g id="Layer_3" data-name="Layer 3">
    <circle class="cls-3" cx="85.18" cy="227" r="26.85"/>
    <circle class="cls-2" cx="296.94" cy="536.39" r="9.52"/>
    <circle class="cls-2" cx="236.88" cy="536.39" r="9.52"/>
    <path class="cls-2" d="m344.5,450.7c-.92,0-1.82-.2-2.66-.59-1.53-.71-2.68-1.97-3.26-3.56s-.5-3.3.21-4.82l26.33-56.47h-163.28l-6.32-12.61h198.53v12.61h-15.01l-28.82,61.8c-1.03,2.21-3.28,3.64-5.72,3.64Z"/>
    <path class="cls-2" d="m213.28,499.9c-2.74,0-5.27-1.61-6.43-4.09l-48.96-104.99-58.61-.03,5.81-12.58h56.4c2.69,0,5.17,1.58,6.3,4.02l48.99,105.05h103.87c3.48,0,6.31,2.83,6.31,6.31s-2.83,6.31-6.31,6.31h-107.39Z"/>
    <path class="cls-4" d="m166.97,467.29l-12.89,27.64c-2.46,5.25-7.79,8.86-13.97,8.86h-73.5c-8.51,0-15.4-6.89-15.4-15.4,0-2.33.52-4.53,1.44-6.51h0s0,0,0,0l40.66-87.26,39.66.02,34,72.66Z"/>
    <path class="cls-4" d="m203.45,389.08l88.19-189.08,137.55,294.92c2.46,5.25,7.79,8.86,13.97,8.86h73.5c8.51,0,15.4-6.89,15.4-15.4,0-2.33-.52-4.53-1.44-6.51L352.21,99.49c-10.62-22.81-33.75-38.61-60.57-38.61s-49.95,15.81-60.57,38.61l-120.18,257.01h71.57s15.12,32.57,15.12,32.57"/>
  </g>
  <g id="Layer_5" data-name="Layer 5">
    <g>
      <path class="cls-1" d="m235.84,717.91c-1.66,0-3.12.57-4.37,1.71-.82.73-1.55,1.72-2.19,2.97-.29.61-.54,1.4-.74,2.36-.06.32-.13.74-.22,1.27.26-.7.85-1.27,1.77-1.73s1.9-.68,2.95-.68c1.6,0,2.89.56,3.85,1.68.96,1.12,1.44,2.46,1.44,4,0,1.69-.55,3.05-1.66,4.07-1.11,1.02-2.48,1.53-4.11,1.53-1.92,0-3.47-.67-4.63-2.01-1.25-1.43-1.88-3.4-1.88-5.9,0-3.32.94-6.08,2.82-8.29,1.88-2.2,4.2-3.3,6.97-3.3,3.32,0,5.92,1.11,7.78,3.32,1.6,1.89,2.4,4.12,2.4,6.69,0,1.98-.4,3.8-1.2,5.46-.8,1.66-1.86,3.07-3.17,4.24l-2.1-1.39c1.22-.76,2.19-2.01,2.89-3.76.61-1.51.92-3,.92-4.46,0-2.16-.7-3.99-2.1-5.51-1.4-1.52-3.21-2.27-5.42-2.27Zm0,11.67c0-.99-.31-1.83-.94-2.51-.63-.68-1.42-1.03-2.38-1.03s-1.76.33-2.38.98c-.63.66-.94,1.51-.94,2.56,0,.88.31,1.65.92,2.32.61.67,1.4,1.01,2.36,1.01,1.11,0,1.97-.38,2.58-1.14.52-.64.79-1.37.79-2.19Z"/>
      <path class="cls-1" d="m259.27,717.91c-1.66,0-3.12.57-4.37,1.71-.82.73-1.55,1.72-2.19,2.97-.29.61-.54,1.4-.74,2.36-.06.32-.13.74-.22,1.27.26-.7.85-1.27,1.77-1.73s1.9-.68,2.95-.68c1.6,0,2.89.56,3.85,1.68.96,1.12,1.44,2.46,1.44,4,0,1.69-.55,3.05-1.66,4.07-1.11,1.02-2.48,1.53-4.11,1.53-1.92,0-3.47-.67-4.63-2.01-1.25-1.43-1.88-3.4-1.88-5.9,0-3.32.94-6.08,2.82-8.29,1.88-2.2,4.2-3.3,6.97-3.3,3.32,0,5.92,1.11,7.78,3.32,1.6,1.89,2.4,4.12,2.4,6.69,0,1.98-.4,3.8-1.2,5.46-.8,1.66-1.86,3.07-3.17,4.24l-2.1-1.39c1.22-.76,2.19-2.01,2.89-3.76.61-1.51.92-3,.92-4.46,0-2.16-.7-3.99-2.1-5.51-1.4-1.52-3.21-2.27-5.42-2.27Zm0,11.67c0-.99-.31-1.83-.94-2.51-.63-.68-1.42-1.03-2.38-1.03s-1.76.33-2.38.98c-.63.66-.94,1.51-.94,2.56,0,.88.31,1.65.92,2.32.61.67,1.4,1.01,2.36,1.01,1.11,0,1.97-.38,2.58-1.14.52-.64.79-1.37.79-2.19Z"/>
      <path class="cls-1" d="m311.25,725.6c0,4.31-1.94,7.49-5.82,9.53l-1.44-1.83c1.56-.93,2.7-1.98,3.42-3.15.72-1.17,1.08-2.65,1.08-4.46,0-2.21-.63-4.06-1.9-5.53-1.26-1.47-2.84-2.21-4.73-2.21-2,0-3.62.76-4.86,2.27-1.23,1.52-1.85,3.28-1.85,5.29,0,1.6.33,3.05.98,4.33.66,1.28,1.52,2.26,2.6,2.93v2.01h-16.75v-1.92c.64-.26,1.11-.51,1.4-.74.96-.78,1.44-1.83,1.44-3.13,0-1.22-.42-2.29-1.27-3.22-.96-1.04-2.2-1.57-3.72-1.57s-2.67.45-3.65,1.34c-.98.89-1.46,2-1.46,3.31,0,1.41.41,2.5,1.22,3.29.26.26.67.53,1.22.79l-1.4,1.84c-1.08-.35-1.94-1.12-2.58-2.29-.64-1.17-.96-2.38-.96-3.61,0-1.79.64-3.34,1.93-4.67,1.52-1.55,3.52-2.33,6.01-2.33,2.22,0,4.03.71,5.44,2.14,1.31,1.34,1.97,2.93,1.97,4.77,0,.99-.17,1.87-.5,2.62-.09.23-.26.51-.5.83h8.35c-.55-.47-1.06-1.25-1.53-2.36-.61-1.43-.92-2.91-.92-4.46,0-2.74.85-5.08,2.56-7.02s3.93-2.91,6.67-2.91c2.89,0,5.23,1.05,7.04,3.15,1.66,1.95,2.49,4.27,2.49,6.95Z"/>
      <path class="cls-1" d="m342.34,749.08h-14.47v-1.57c.49-.2.86-.39,1.09-.57.76-.61,1.14-1.46,1.14-2.54,0-.96-.34-1.82-1.01-2.58-.76-.85-1.75-1.27-2.97-1.27-1.14,0-2.1.35-2.89,1.06s-1.18,1.61-1.18,2.69c0,1.15.32,2.03.96,2.65.2.21.54.41,1.01.62l-1.09,1.5c-.88-.29-1.57-.9-2.1-1.83-.53-.93-.79-1.89-.79-2.89,0-1.44.52-2.71,1.57-3.79,1.2-1.24,2.8-1.85,4.81-1.85,1.78,0,3.21.55,4.29,1.66,1.08,1.11,1.62,2.4,1.62,3.89,0,.79-.13,1.49-.39,2.1-.09.2-.21.44-.39.7h8.03v-12.29h-15.35v-1.92c.64-.26,1.11-.51,1.4-.74.96-.78,1.44-1.83,1.44-3.13,0-1.22-.42-2.29-1.27-3.22-.96-1.04-2.2-1.57-3.72-1.57-1.43,0-2.63.45-3.61,1.34s-1.46,2-1.46,3.31c0,1.41.39,2.5,1.18,3.29.26.26.67.53,1.22.79l-1.36,1.84c-1.08-.35-1.95-1.11-2.6-2.27-.66-1.16-.98-2.37-.98-3.63,0-1.76.66-3.32,1.97-4.67,1.52-1.55,3.51-2.33,5.96-2.33,2.22,0,4.03.71,5.44,2.14,1.32,1.34,1.97,2.93,1.97,4.77,0,.99-.16,1.87-.48,2.62-.09.23-.25.51-.48.83h10.71v-16.44h2.75v33.27Z"/>
      <path class="cls-1" d="m365.82,727.29c0,2.06-.58,3.84-1.75,5.32-1.28,1.63-2.96,2.44-5.03,2.44-1.63,0-3.05-.74-4.24-2.23-1.2-1.49-1.79-3.34-1.79-5.55,0-1.69.42-3.34,1.27-4.96.84-1.62,1.95-2.98,3.32-4.09-.23-.08-.44-.13-.61-.16-.64-.13-1.22-.19-1.75-.19h-.66c-1.57,0-3.01.79-4.31,2.38-1.3,1.59-1.95,3.4-1.95,5.44,0,1.49.29,2.96.88,4.42.7,1.75,1.68,3.02,2.93,3.8l-2.05,1.39c-1.34-1.17-2.38-2.53-3.1-4.11-.82-1.72-1.22-3.58-1.22-5.59,0-2.39.84-4.59,2.54-6.6,1.95-2.3,4.43-3.45,7.43-3.45.67,0,1.3.07,1.88.2.58.13,1.21.34,1.88.63.26-.23.49-.56.68-.98.19-.42.34-1.03.46-1.81.09-.7-.15-1.38-.7-2.06-.55-.67-1.27-1-2.14-1s-1.65.23-2.41.68c-.47.29-1,.74-1.62,1.37l-1.31-1.75c.55-.58,1.05-1.02,1.49-1.31,1.31-.87,2.81-1.31,4.5-1.31,1.37,0,2.51.51,3.43,1.52.92,1.02,1.38,2.29,1.38,3.82,0,.77-.16,1.53-.48,2.29-.32.77-.71,1.4-1.18,1.9,1.37,1.19,2.42,2.67,3.15,4.43s1.09,3.47,1.09,5.12Zm-2.88-.06c0-1.6-.26-3.03-.77-4.29-.51-1.25-1.41-2.43-2.69-3.54-1.05.82-1.95,1.94-2.71,3.37-.85,1.57-1.27,3.08-1.27,4.5,0,1.6.35,2.9,1.05,3.89.7.99,1.52,1.49,2.45,1.49,1.31,0,2.3-.51,2.95-1.53.66-1.02.98-2.32.98-3.89Z"/>
      <path class="cls-1" d="m403.98,734.79h-19.06v-6.05c0-3.51.14-5.88.42-7.12.28-1.24.94-2.43,1.99-3.57.88-.96,1.92-1.65,3.13-2.06,1.21-.41,2.59-.61,4.13-.61,3.15,0,5.5.91,7.06,2.72,1.56,1.81,2.34,4.75,2.34,8.81v7.89Zm-9.01-12.59c0-1.08-.33-1.95-1-2.62-.67-.67-1.47-1.01-2.41-1.01-1.25,0-2.21.55-2.89,1.66s-1,2.93-1,5.46v6.51c2.65-1.95,4.53-3.71,5.64-5.27,1.11-1.56,1.66-3.14,1.66-4.74Zm6.25,10.06v-5.39c0-3.48-.53-5.91-1.6-7.28-1.06-1.37-2.69-2.06-4.88-2.06.7.35,1.21.69,1.53,1.01,1.02,1,1.53,2.28,1.53,3.86,0,1.46-.33,2.76-1,3.9-.93,1.58-2.77,3.57-5.51,5.96h9.92Z"/>
      <path class="cls-1" d="m422.61,725.08c0,2.94-.54,5.25-1.63,6.91-1.32,2.01-3.37,3.02-6.16,3.02-1.96,0-3.58-.61-4.84-1.84-1.41-1.37-2.11-3.24-2.11-5.6h2.62c0,1.59.43,2.84,1.28,3.75s1.88,1.37,3.09,1.37c1.77,0,3.06-.7,3.88-2.11.74-1.26,1.1-3.09,1.1-5.5,0-2.17-.37-3.88-1.09-5.15-.82-1.44-2.03-2.16-3.63-2.16-1.31,0-2.39.46-3.24,1.37-.96,1.06-1.44,2.53-1.44,4.41h-2.58c0-2.21.63-4.08,1.88-5.6,1.37-1.66,3.18-2.49,5.42-2.49,2.45,0,4.33.98,5.64,2.93,1.19,1.78,1.79,4.01,1.79,6.69Z"/>
      <path class="cls-1" d="m446.17,727.29c0,2.06-.58,3.84-1.75,5.32-1.28,1.63-2.96,2.44-5.03,2.44-1.63,0-3.05-.74-4.24-2.23-1.2-1.49-1.79-3.34-1.79-5.55,0-1.69.42-3.34,1.27-4.96.84-1.62,1.95-2.98,3.32-4.09-.23-.08-.44-.13-.61-.16-.64-.13-1.22-.19-1.75-.19h-.66c-1.57,0-3.01.79-4.31,2.38-1.3,1.59-1.95,3.4-1.95,5.44,0,1.49.29,2.96.88,4.42.7,1.75,1.68,3.02,2.93,3.8l-2.05,1.39c-1.34-1.17-2.38-2.53-3.1-4.11-.82-1.72-1.22-3.58-1.22-5.59,0-2.39.84-4.59,2.54-6.6,1.95-2.3,4.43-3.45,7.43-3.45.67,0,1.3.07,1.88.2.58.13,1.21.34,1.88.63.26-.23.49-.56.68-.98.19-.42.34-1.03.46-1.81.09-.7-.15-1.38-.7-2.06-.55-.67-1.27-1-2.14-1s-1.65.23-2.41.68c-.47.29-1,.74-1.62,1.37l-1.31-1.75c.55-.58,1.05-1.02,1.49-1.31,1.31-.87,2.81-1.31,4.5-1.31,1.37,0,2.51.51,3.43,1.52.92,1.02,1.38,2.29,1.38,3.82,0,.77-.16,1.53-.48,2.29-.32.77-.71,1.4-1.18,1.9,1.37,1.19,2.42,2.67,3.15,4.43s1.09,3.47,1.09,5.12Zm-2.88-.06c0-1.6-.26-3.03-.77-4.29-.51-1.25-1.41-2.43-2.69-3.54-1.05.82-1.95,1.94-2.71,3.37-.85,1.57-1.27,3.08-1.27,4.5,0,1.6.35,2.9,1.05,3.89.7.99,1.52,1.49,2.45,1.49,1.31,0,2.3-.51,2.95-1.53.66-1.02.98-2.32.98-3.89Z"/>
      <path class="cls-1" d="m494.4,725.58c0,1.99-.4,3.81-1.2,5.47s-1.86,3.08-3.17,4.25l-2.05-1.39c1.2-.76,2.13-2.02,2.8-3.77.58-1.52.88-3.01.88-4.47,0-2.02-.71-3.81-2.14-5.39-1.43-1.58-2.99-2.37-4.68-2.37-2.45,0-4.34.93-5.68,2.78-.44.62-.88,1.54-1.31,2.78h2.67c1.51,0,2.85.37,4,1.11s1.86,1.82,2.12,3.25c.09.49.13.96.13,1.39,0,1.71-.58,3.11-1.74,4.18-1.16,1.07-2.48,1.61-3.96,1.61-2.06,0-3.67-.71-4.81-2.13-1.15-1.42-1.72-3.26-1.72-5.51v-1.58h-3.19c0,3.44-.61,5.93-1.84,7.47-1.08,1.37-2.74,2.05-4.98,2.05-1.34,0-2.36-.13-3.06-.4-1.11-.42-1.94-1.23-2.49-2.43-.26.99-.85,1.69-1.75,2.1-.64.29-1.46.44-2.45.44-1.31,0-2.4-.44-3.28-1.31-1.05-1.05-1.57-2.61-1.57-4.68,0-1.63.5-2.99,1.49-4.07.99-1.08,2.4-1.62,4.24-1.62h1.97c0-2.16.65-4,1.95-5.53s2.94-2.3,4.92-2.3,3.43.69,4.61,2.08c1.18,1.38,1.89,3.3,2.12,5.75h3.85c.61-2.2,1.65-3.99,3.1-5.36,1.72-1.64,3.8-2.46,6.25-2.46,3,0,5.48,1.12,7.43,3.37,1.72,1.99,2.58,4.22,2.58,6.7Zm-36.9,3.48c-.09-.56-.14-1.12-.15-1.68-.01-.56-.02-1.09-.02-1.59h-1.2c-1.2,0-2.05.16-2.54.49-.75.47-1.12,1.4-1.12,2.79s.26,2.3.77,2.92c.43.53.99.8,1.68.8s1.34-.26,1.87-.78.79-1.23.79-2.15c0-.18-.03-.44-.09-.8Zm10.88-5.72c0-1.6-.38-2.91-1.13-3.91-.75-1-1.77-1.51-3.07-1.51-1.06,0-1.96.44-2.7,1.31-.83.99-1.24,2.36-1.24,4.11h8.13Zm0,2.45h-8.13c0,2.74.39,4.68,1.17,5.82.63.92,1.59,1.39,2.86,1.39,1.5,0,2.56-.56,3.18-1.68.62-1.12.93-2.96.93-5.53Zm15.61,2.95c-.09-1.16-.51-1.97-1.28-2.43-.56-.35-1.41-.52-2.55-.52h-2.86s-.04-.01-.04-.04c-.15.09-.22.85-.22,2.3,0,1.3.32,2.38.96,3.24.64.86,1.54,1.28,2.71,1.28.88,0,1.59-.2,2.14-.61.76-.55,1.14-1.42,1.14-2.61v-.61Z"/>
      <path class="cls-1" d="m516.13,725.43c0,1.92-.42,3.67-1.27,5.25-.99,1.87-2.55,3.41-4.68,4.63l-1.27-1.75c1.38-.82,2.47-1.9,3.27-3.26s1.19-2.76,1.19-4.22c0-2.24-.48-4.09-1.45-5.55-1.14-1.72-2.72-2.58-4.74-2.58-1.9,0-3.5.73-4.78,2.19-1.29,1.46-1.93,3.29-1.93,5.51,0,1.81.37,3.3,1.12,4.48.74,1.18,1.9,2.24,3.48,3.17l-1.4,1.88c-1.89-1.17-3.32-2.52-4.28-4.07-1.05-1.66-1.57-3.5-1.57-5.51,0-2.59.84-4.88,2.54-6.86,1.84-2.16,4.17-3.24,7-3.24,2.59,0,4.71.97,6.34,2.91,1.63,1.94,2.45,4.28,2.45,7.02Zm-2.32,17.31c0,1.34-.32,2.56-.96,3.67-.76,1.34-1.94,2.43-3.54,3.28l-1.22-1.53c1.05-.55,1.86-1.27,2.43-2.16.57-.89.85-1.83.85-2.82,0-1.43-.34-2.61-1.01-3.54-.76-1.05-1.82-1.57-3.19-1.57s-2.38.46-3.21,1.38c-.83.92-1.25,2.05-1.25,3.4,0,1.2.28,2.21.83,3.02.55.82,1.41,1.56,2.58,2.24l-1.27,1.58c-2.94-1.69-4.42-3.97-4.42-6.84,0-1.9.62-3.52,1.86-4.86,1.24-1.34,2.89-2.02,4.96-2.02,1.89,0,3.46.65,4.7,1.94,1.24,1.29,1.86,2.9,1.86,4.83Z"/>
      <path class="cls-1" d="m518.18,706.28c0,2.25-.57,3.98-1.71,5.2-1.14,1.22-2.78,1.84-4.91,1.84-1.67,0-3.08-.42-4.25-1.27-1.38-.99-2.06-2.39-2.06-4.2v-1.57h2.93c-.06.15-.09.39-.09.74v.96c.09.96.46,1.73,1.12,2.29.66.57,1.44.85,2.35.85,1.44,0,2.47-.39,3.1-1.18.63-.79.95-2.01.95-3.67h2.58Z"/>
    </g>
    <path class="cls-5" d="m238.4,622.64c-21.61-.77-24.53,24.57-24.53,24.57,0,0-3.64-12.98-17.43-20.53,6.27-16.19,6.66-38.29-22.5-53.82-25.09-13.36-66.11-4.36-83.17,7.55-23,16.37-40.09,36.59-39.55,69.27.49,29.71,14.4,45.99,34.16,58.67,22.74,14.6,47.94,16.82,67.25,19.02,13.36,1.7,24.82,1.44,34.21,1.95,6.8.37,13.41,1.81,16.87,6.27,0,0,8.9-25.66-13.41-28.12-18.86-2.08-45.01.89-80.17-11.98-29.77-10.9-45.96-44.23-26.69-78.92,19.27-34.69,69.66-33.41,84.09-23.82,12.67,8.42,14.79,19.34,12.22,28.94-29.93-3.24-60.19,17.73-50.51,45.97,2.76,8.05,13.47,17.12,25.54,19.65,16.6,3.47,37.53,3.43,43.51-7.58,5.13-9.45.84-18.25-8.7-22.18-9.96-4.1-22.46-3.93-22.46-3.93,0,0,12.25-3.57,21.22-13.37,3.78,2.16,7.11,5.22,9.65,9.25,11.52,18.26,2.98,40.47,2.98,40.47h23.29s-7.25-17.2-2-32.61c2.5-7.33,6.78-12.02,12.07-13,2.24-.41,4.3-.07,6.09.86-3.67,1-7.66,3.26-11.23,7.93-7.18,9.37-7.3,19.06-3.34,27.48,3.92,8.32,17.95,13.12,26.86,4.95,5.27-4.83,7.73-11.36,8.53-19.61.66-6.87,0-17.5-2.77-25.26-3.81-10.7-11.12-17.75-20.1-18.07Zm-85.93,21.96v16.12s17.87-2.8,23.12,3.15c5.26,5.96-11.34,9.18-22.21,3.22-10.86-5.96-6.52-24.95,7.14-29.15,3.65-1.12,7.45-1.71,11.21-1.76-8.95,9.93-19.27,8.42-19.27,8.42Zm84.18,25.64c-1.18-3.05,1.13-6.94,4.21-9.16,2.04-1.47,4.27-1.89,6.11-1.93-.21,3.39-1.3,6.38-2.46,8.67-2.71,5.37-6.37,6.25-7.86,2.41Zm167.97-48h-29.43s-.03,15.58-.03,27.51c0,14.67,4.58,22.9,4.58,22.9l-14.38.03s.57-.97.85-1.5c.84-1.66,1.57-3.64,2.08-6.01,4.08-19.12.99-28.97-8.91-38.25-5.63-5.27-13.83-5.26-19.32-2.97-1.84-.72-3.87-1.1-6.12-.99-15.84.77-21.25,23.52-21.25,23.52,0,0-7.23-30.23-29.01-23.27-11.31,3.62-19.16,19.54-18.57,34.91.74,19.31,9.8,29.19,22.5,31.78,11.16,2.27,17.51-14.04,16.18-23.38-1.47-10.31-10.6-18.24-20.99-16.91,4.94-3.34,11.98-4.47,17.22,1.33,11.63,12.88,2.2,38.96,2.2,38.96h22.56s-6.68-16.43-3.47-30.79c.48-2.13,1.12-4.09,1.86-5.87.06,5.02,1.42,10.09,4.64,14.73,5.75,8.3,19.5,7.61,24.69-11.14,1.33-4.8,1.05-12.12-1.08-18.72,5.29,4.27,6.95,13.4,4.43,21.14-3.46,10.65-6.51,12.57-11.7,15.04-8.17,3.9-19.31,2.6-19.31,2.6,0,0-.48,2.66,1.11,5.75,2.17,4.21,5.66,7.3,9.83,7.3h66.96s-7.41-12.13-7.41-32.92c0-16.71,9.28-34.76,9.28-34.76Zm-117.22,44.78c1.5,3.24-.5,7.43-5.2,4.95-1.98-1.04-4.12-3.93-5.06-7.66.91-.46,2.09-.88,3.45-.91,2.04-.05,5.32.41,6.81,3.62Zm51.86-12.25c-2.19,1.11-5.2-.99-6.31-3.84-.97-2.49-.55-5.67.91-8.48,2.27-.25,4.45.68,6.27,3.04,2.29,2.97,1.33,8.17-.87,9.28Zm148-30.56c3.65-6.01,16.23-23.49,43.67-33.21,0,0-10.22-24.47-40.31-24.09-30.09.37-43.72,13.74-56.21,19.76-12.49,6.02-47.5,25.79-81.57,24.28-34.07-1.51-50.07-19.22-54.32-30.68-3.78-10.21-7.9-13.6-17.7-13.31-8.91.25-10.51,1.27-10.51,1.27,0,0,4.16,3.77,5.11,9.23.94,5.46,6.44,19.95,17.22,26.73,10.79,6.78,21.76,11.11,35.77,12.24,14.01,1.13,37.1,1.5,56.97-2.45,19.87-3.95,49.21-15.43,55.08-17.88,5.87-2.45,30.09-13.55,45.05-10.35,14.95,3.2,11.92,11.29,7.19,15.06-3.24,2.57-11.87,11.36-17.06,21.24-2.8-.15-5.84-.08-9.14.21-6.17.56-11.8,2.28-16.78,4.86-.98-.61-1.99-1.18-3.03-1.67-8.27-3.92-18.28-3.7-26.87.77-9.53,5.29-14.41,11.11-17.57,20.77-5.47,16.75-1,32.69,4.29,42.92h21.7s-7.19-7.85-9.28-17.24c-1.58-7.1-1.84-17.62,1.85-23.82,4.08-6.85,8.33-8.26,12.95-7.72-4.89,6.99-7.67,15.17-7.75,23.32-.2,21.14,16.13,30.47,27.85,23.77,13.86-7.92,14.4-29.18,10.87-41.88-.75-2.42-1.93-4.88-3.38-7.25,2.61-.99,5.47-1.55,8.55-1.56-1.63,5.67-2.67,11.01-3.05,15.78-.76,9.39.26,16.21,3.11,21.93,2.04,4.12,3.59,7.56,7.84,10.75,10.68,8.03,21.95,2.83,26.48-5.23,4.35-7.74,8.24-19.65,3.3-34.02-3.31-9.62-8.91-18.5-20.34-22.51Zm-43.05,46.53c-3.08-3.18-1.82-11.83,2.98-19.51.9,2.07,1.73,4.45,2.59,7.25,3.44,11.17-2.06,15.89-5.57,12.25Zm42.65-7.38c-4.36-.26-8.76-4.45-4.69-23.05,14.64,7.04,11.06,23.42,4.69,23.05Z"/>
  </g>
</svg>