<?xml version="1.0" encoding="UTF-8"?>
<svg id="Layer_3" data-name="Layer 3" xmlns="http://www.w3.org/2000/svg" viewBox="0 0 595.28 841.89">
  <defs>
    <style>
      .cls-1 {
        fill: #ed1c24;
      }

      .cls-1, .cls-2 {
        stroke-width: 0px;
      }

      .cls-3 {
        fill: #231f20;
        stroke: #231f20;
        stroke-miterlimit: 10;
        stroke-width: 7.65px;
      }

      .cls-2 {
        fill: #8dc63f;
      }
    </style>
  </defs>
  <circle class="cls-1" cx="85.18" cy="227" r="26.85"/>
  <circle class="cls-3" cx="296.94" cy="536.39" r="9.52"/>
  <circle class="cls-3" cx="236.88" cy="536.39" r="9.52"/>
  <path class="cls-3" d="m344.5,450.7c-.92,0-1.82-.2-2.66-.59-1.53-.71-2.68-1.97-3.26-3.56s-.5-3.3.21-4.82l26.33-56.47h-163.28l-6.32-12.61h198.53v12.61h-15.01l-28.82,61.8c-1.03,2.21-3.28,3.64-5.72,3.64Z"/>
  <path class="cls-3" d="m213.28,499.9c-2.74,0-5.27-1.61-6.43-4.09l-48.96-104.99-58.61-.03,5.81-12.58h56.4c2.69,0,5.17,1.58,6.3,4.02l48.99,105.05h103.87c3.48,0,6.31,2.83,6.31,6.31s-2.83,6.31-6.31,6.31h-107.39Z"/>
  <path class="cls-2" d="m166.97,467.29l-12.89,27.64c-2.46,5.25-7.79,8.86-13.97,8.86h-73.5c-8.51,0-15.4-6.89-15.4-15.4,0-2.33.52-4.53,1.44-6.51h0s0,0,0,0l40.66-87.26,39.66.02,34,72.66Z"/>
  <path class="cls-2" d="m203.45,389.08l88.19-189.08,137.55,294.92c2.46,5.25,7.79,8.86,13.97,8.86h73.5c8.51,0,15.4-6.89,15.4-15.4,0-2.33-.52-4.53-1.44-6.51L352.21,99.49c-10.62-22.81-33.75-38.61-60.57-38.61s-49.95,15.81-60.57,38.61l-120.18,257.01h71.57s15.12,32.57,15.12,32.57"/>
</svg>