<?xml version="1.0" encoding="UTF-8"?>
<svg id="Layer_3" data-name="Layer 3" xmlns="http://www.w3.org/2000/svg" viewBox="0 0 595.28 841.89">
  <defs>
    <style>
      .cls-1 {
        fill: #8dc63f;
        stroke-width: 0px;
      }

      .cls-2 {
        font-size: 112.9px;
      }

      .cls-2, .cls-3 {
        fill: #231f20;
        font-family: ArialRoundedMTBold, 'Arial Rounded MT Bold';
      }

      .cls-3 {
        font-size: 69.78px;
      }
    </style>
  </defs>
  <text class="cls-2" transform="translate(129.28 660.96)"><tspan x="0" y="0">NCHAL </tspan></text>
  <path class="cls-1" d="m125.5,658.18l-27.65-72.13c-1.65-4.3-5.23-7.28-9.39-7.28s-7.74,2.98-9.39,7.28l-21.35,55.67-6.3,16.46c-.14.37-.22.79-.22,1.23,0,1.6,1.07,2.91,2.39,2.91h11.39c.96,0,1.78-.68,2.16-1.67l2-5.21,19.32-50.42,21.31,55.63c.38.99,1.21,1.67,2.16,1.67h11.39c1.32,0,2.39-1.3,2.39-2.91,0-.44-.08-.85-.22-1.23Z"/>
  <text class="cls-3" transform="translate(29.73 741.26)"><tspan x="0" y="0">HYPERMARKET</tspan></text>
</svg>